<svg enable-background="new 0 0 150 150" viewBox="0 0 150 150" xmlns="http://www.w3.org/2000/svg"><path d="m129.1 58.3s-4.9-5.7-9.9-1.4c-2.8 2.4-6.6 6.3-10.8 9.3-9.2-2.2-15.3-21.4-17.2-28.9-2.3-9-16-1.9-16-1.9l-4.9 1.9c-3.3-1.9-6.6-2.7-9.7-2.1-7.9 1.2-39.6 17.9-57.3 17.5 0 0 3.5 9.2 25.4 3.5s43.4 1.4 42.7 16c-.8 16.4-3.8 32.8-14.4 36.3s-16.3 2.1-16.3 2.1l6 3.8-.4 12.5s7.1-15.6 29-21.9c21.9-6.4 27 1.2 41.7-25.4 10.2-18.5 16.3-18.4 16.3-18.4l7.8-.7c-0-.1-2.9-5-12-2.2zm-31.1 12c-7.8 0-8.5-1.4-14.1-15.5-3-7.4-7.1-12.8-11.4-16.1.2-.1.5-.2.7-.3 10.1-3.9 11.7-2.8 14.3 2.7 2.5 5.3 1.2 17.2 9.4 25.9 1.5 1.6 3.2 2.4 5 2.6-1.4.5-2.7.7-3.9.7zm25.4-7.8c-.9 0-1.7-.8-1.7-1.7s.8-1.7 1.7-1.7 1.7.8 1.7 1.7c-0 1-.7 1.7-1.7 1.7z" fill="#1c3f48" opacity=".96"/></svg>